# xmcd CD database file
#
# Track frame offsets:
#	150
#	16507
#	27612
#
# Disc length: 718 seconds
#
# Revision: 0
# Processed by: cddbd v1.4PL0 Copyright (c) Steve Scherf et al.
# Submitted via: CDex 1.50Beta5
#
DISCID=1702cc03
DTITLE=Marvin Key - Ain't no mountain high
DYEAR=1998
DGENRE=Rhythmic Soul
TTITLE0=Ain't no mountain high House radio version
TTITLE1=Ain't no mountain high classic mix
TTITLE2=Ain't no mountain high House mix
EXTD=YEAR: 1998
EXTT0=
EXTT1=
EXTT2=
PLAYORDER=
